<?xml version="1.0" encoding="UTF-8"?><svg id="Layer_2" xmlns="http://www.w3.org/2000/svg" viewBox="0 0 119.07 149.33"><defs><style>.cls-1{fill:#338e38;}.cls-2{fill:#7a4c22;}</style></defs><g id="_"><g><path class="cls-1" d="M119.07,56.39c0-16.53-12.87-30.04-29.14-31.07C87.21,10.9,74.55,0,59.35,0c-16.56,0-30.1,12.93-31.08,29.24C12.42,30.69,0,44.02,0,60.24c0,7.57,2.7,14.51,7.2,19.91-.4,2-.62,4.07-.62,6.2,0,17.2,13.94,31.14,31.14,31.14,9.68,0,18.32-4.41,24.04-11.34,5.7,6.25,13.9,10.18,23.03,10.18,17.2,0,31.14-13.94,31.14-31.14,0-4.03-.77-7.87-2.16-11.4,3.35-4.97,5.3-10.95,5.3-17.39Z"/><polygon class="cls-2" points="82.67 65.43 80.44 62.99 63.96 78.44 61.72 39.51 56.79 39.51 54.03 87.61 35.37 72.42 33.05 75.43 53.55 95.93 50.49 149.33 68.03 149.33 64.45 87.07 82.67 65.43"/></g></g></svg>